<?xml version="1.0" encoding="UTF-8" standalone="no"?>
<svg
   xmlns="http://www.w3.org/2000/svg"
   version="1.1"
   id="svg11680"
   width="24.510416"
   height="24.515627">
  <defs
     id="defs11684" />
  <g
     id="g11688"
     transform="matrix(1.3333333,0,0,1.3333333,-60.333332,-196.36458)">
    <path
       style="fill:#009787;fill-opacity:1;fill-rule:nonzero;stroke:none"
       d="m 49.335938,158.50781 h 3.0625 v 3.06641 h -3.0625 z m 0,4.08594 h 3.0625 c 0.5625,0 1.023437,-0.45703 1.023437,-1.01953 v -3.06641 c 0,-0.5625 -0.460937,-1.01953 -1.023437,-1.01953 h -3.0625 c -0.5625,0 -1.023438,0.45703 -1.023438,1.01953 v 3.06641 c 0,0.5625 0.460938,1.01953 1.023438,1.01953 m 0,-11.23438 h 3.0625 v 3.0625 h -3.0625 z m 0,4.08594 h 3.0625 c 0.5625,0 1.023437,-0.46094 1.023437,-1.02344 v -3.0625 c 0,-0.5625 -0.460937,-1.01953 -1.023437,-1.01953 h -3.0625 c -0.5625,0 -1.023438,0.45703 -1.023438,1.01953 v 3.0625 c 0,0.5625 0.460938,1.02344 1.023438,1.02344 m 12.253906,10.21485 H 47.292969 c -1.125,0 -2.042969,-0.92188 -2.042969,-2.04297 v -14.30078 c 0,-1.125 0.917969,-2.04297 2.042969,-2.04297 h 14.296875 c 1.125,0 2.042968,0.91797 2.042968,2.04297 v 14.30078 c 0,1.12109 -0.917968,2.04297 -2.042968,2.04297 m -5.105469,-4.59766 h 3.0625 c 0.5625,0 1.023437,-0.46094 1.023437,-1.02344 0,-0.55859 -0.460937,-1.01953 -1.023437,-1.01953 h -3.0625 c -0.5625,0 -1.019531,0.46094 -1.019531,1.01953 0,0.5625 0.457031,1.02344 1.019531,1.02344 m 0,-7.14844 h 3.0625 c 0.5625,0 1.023437,-0.46094 1.023437,-1.02344 0,-0.5625 -0.460937,-1.01953 -1.023437,-1.01953 h -3.0625 c -0.5625,0 -1.019531,0.45703 -1.019531,1.01953 0,0.5625 0.457031,1.02344 1.019531,1.02344"
       id="path2195" />
  </g>
</svg>
