<?xml version="1.0" encoding="UTF-8" standalone="no"?>
<svg
   xmlns="http://www.w3.org/2000/svg"
   version="1.1"
   id="svg11691"
   width="24.468748"
   height="25.365683">

  <defs
     id="defs11695" />
  <g
     id="g11699"
     transform="matrix(1.3333333,0,0,1.3333333,-109.68229,-194.21765)">
    <path
       style="fill:#9c19b0;fill-opacity:1;fill-rule:nonzero;stroke:none"
       d="m 98.78125,155.50781 h -1.835938 v -0.91406 c 0,-0.50781 -0.414062,-0.91797 -0.917968,-0.91797 -0.507813,0 -0.917969,0.41016 -0.917969,0.91797 v 0.91406 H 84.097656 v -2.75 c 0,-0.5039 0.410156,-0.91797 0.917969,-0.91797 h 12.847656 c 0.503907,0 0.917969,0.41407 0.917969,0.91797 z m -11.929688,7.34375 c -1.523437,0 -2.753906,-1.23047 -2.753906,-2.7539 0,-1.52344 1.230469,-2.75391 2.753906,-2.75391 1.523438,0 2.75,1.23047 2.75,2.75391 0,1.52343 -1.226562,2.7539 -2.75,2.7539 m -3.453124,-12.71094 c -0.667969,0.25782 -1.136719,0.9375 -1.136719,1.69922 v 11.01172 c 0,1.00781 0.824219,1.83594 1.835937,1.83594 H 98.78125 c 1.015625,0 1.83203,-0.82813 1.83203,-1.83594 v -11.01172 c 0,-1.01172 -0.824218,-1.83593 -1.83203,-1.83593 H 88.042969 L 94.859375,147.25 c 0.425781,-0.17188 0.625,-0.64844 0.449219,-1.07422 -0.171875,-0.42187 -0.648438,-0.625 -1.070313,-0.44922 z m 0,0"
       id="path2239" />
  </g>
</svg>
